<svg width="127" height="40" viewBox="0 0 127 40" fill="none" xmlns="http://www.w3.org/2000/svg">
<g clip-path="url(#clip0_173_1283)">
<path d="M112.179 1.74642C115.666 1.74642 118.951 3.10164 121.414 5.55362C123.884 8.01258 125.239 11.2749 125.239 14.7468C125.239 18.2187 123.877 21.488 121.414 23.9399C118.951 26.3919 115.666 27.7471 112.179 27.7471H14.8144C11.3266 27.7471 8.04233 26.3919 5.5791 23.9399C3.10886 21.481 1.75443 18.2187 1.75443 14.7468C1.75443 11.2749 3.11588 8.00559 5.5791 5.55362C8.04233 3.10164 11.3266 1.74642 14.8144 1.74642H112.179ZM112.179 0H14.8144C6.63176 0 0 6.60147 0 14.7468C0 22.8921 6.63176 29.4935 14.8144 29.4935H112.179C120.361 29.4935 126.993 22.8921 126.993 14.7468C127 6.60147 120.361 0 112.179 0Z" fill="#FF7708"/>
<path d="M12.1478 11.5129C12.1478 10.5768 12.7022 9.95508 13.6216 9.95508C14.5409 9.95508 15.0953 10.5698 15.0953 11.5129V11.9181H15.1374C15.9514 10.6816 17.3199 9.95508 18.9059 9.95508C20.4919 9.95508 21.327 10.4441 21.9025 11.9181C22.7797 10.7025 23.8955 9.95508 25.5868 9.95508C27.2781 9.95508 29.4816 10.9331 29.4816 13.7273V20.0983C29.4816 20.9296 29.1378 21.6561 27.9167 21.6561C26.6956 21.6561 26.3517 20.9296 26.3517 20.0983V14.5167C26.3517 13.406 25.8605 12.5118 24.6394 12.5118C23.4183 12.5118 22.3727 13.4689 22.3727 14.9219V20.0983C22.3727 20.9296 22.0288 21.6561 20.8077 21.6561C19.5866 21.6561 19.2428 20.9296 19.2428 20.0983V14.5167C19.2428 13.406 18.7515 12.5118 17.5304 12.5118C16.3093 12.5118 15.2637 13.4689 15.2637 14.9219V20.0983C15.2637 20.9296 14.9198 21.6561 13.6987 21.6561C12.4777 21.6561 12.1338 20.9296 12.1338 20.0983V11.5129H12.1478Z" fill="#5E5E5E"/>
<path d="M42.3309 18.3728C42.3309 19.6722 42.6537 19.9725 42.6537 20.4615C42.6537 21.1671 41.987 21.6561 41.2431 21.6561C39.8957 21.6561 39.4466 20.8038 39.4045 19.8468C38.1834 21.1881 36.7728 21.6561 35.1237 21.6561C33.4745 21.6561 31.5938 20.4406 31.5938 18.4846C31.5938 16.5286 33.5657 15.1804 35.9588 14.9079L37.8606 14.6914C38.6115 14.6075 39.208 14.4329 39.208 13.5387C39.208 12.6446 38.2887 12.2604 37.236 12.2604C34.9272 12.2604 34.857 13.9649 33.6219 13.9649C32.3868 13.9649 32.2955 13.413 32.2955 12.7703C32.2955 11.5338 34.05 9.95508 37.2641 9.95508C40.4782 9.95508 42.3379 10.9121 42.3379 13.1475V18.3658L42.3309 18.3728ZM39.208 16.1374C38.8641 16.4587 38.2255 16.5635 37.8606 16.6264L36.7237 16.7941C35.4184 16.9827 34.7096 17.3878 34.7096 18.3309C34.7096 19.274 35.3763 19.6093 36.443 19.6093C38.1553 19.6093 39.201 18.4986 39.201 17.3529V16.1374H39.208Z" fill="#5E5E5E"/>
<path d="M45.8189 12.2808H45.2856C44.4084 12.2808 44.0435 11.9385 44.0435 11.2609C44.0435 10.5833 44.4084 10.241 45.2856 10.241H45.8189V8.34785C45.8189 7.32794 46.4365 6.79004 47.3839 6.79004C48.3313 6.79004 48.9489 7.32095 48.9489 8.34785V10.241H49.8892C50.8086 10.241 51.2998 10.5204 51.2998 11.2609C51.2998 12.0014 50.8086 12.2808 49.8892 12.2808H48.9489V18.505C48.9489 18.9731 49.2085 19.2315 49.7629 19.2315H50.2121C50.8998 19.2315 51.3068 19.6157 51.3068 20.2724C51.3068 20.9291 50.5349 21.6556 49.0401 21.6556C46.7734 21.6556 45.833 20.7195 45.833 18.8892V12.2878L45.8189 12.2808Z" fill="#5E5E5E"/>
<path d="M58.1702 9.95508C60.7808 9.95508 62.7317 11.4221 62.7317 12.8751C62.7317 14.3281 62.065 14.2163 61.279 14.2163C59.8053 14.2163 60.3387 12.3861 58.093 12.3861C55.8473 12.3861 55.4403 13.2174 55.4403 16.0326C55.4403 18.8478 56.3596 19.2251 58.0719 19.2251C59.7843 19.2251 59.7843 17.2202 61.4334 17.2202C63.0826 17.2202 62.7387 17.793 62.7387 18.4147C62.7387 19.7769 61.1948 21.6561 57.9877 21.6561C54.7806 21.6561 52.3174 19.2879 52.3174 16.0326C52.3174 12.7773 54.3525 9.96206 58.1842 9.96206L58.1702 9.95508Z" fill="#5E5E5E"/>
<path d="M64.3739 7.31367C64.3739 6.29376 64.9915 5.75586 65.9389 5.75586C66.8862 5.75586 67.5038 6.28677 67.5038 7.31367V11.5959H67.5459C68.1635 10.7855 69.2582 9.95425 71.0337 9.95425C72.8092 9.95425 74.9707 10.8903 74.9707 14.0479V20.0975C74.9707 20.9288 74.6268 21.6553 73.4057 21.6553C72.1846 21.6553 71.8408 20.9288 71.8408 20.0975V14.6626C71.8408 13.4052 71.2232 12.511 69.8688 12.511C68.5144 12.511 67.4898 13.4052 67.4898 14.963V20.0975C67.4898 20.9288 67.1459 21.6553 65.9248 21.6553C64.7037 21.6553 64.3599 20.9288 64.3599 20.0975V7.31367H64.3739Z" fill="#5E5E5E"/>
<path d="M79.4688 10.2344C80.4302 10.2344 81.2232 11.0238 81.2232 11.9808C81.2232 12.9378 80.4302 13.7272 79.4688 13.7272C78.5074 13.7272 77.7144 12.9378 77.7144 11.9808C77.7144 11.0238 78.5074 10.2344 79.4688 10.2344ZM79.4688 18.0304C80.4302 18.0304 81.2232 18.8198 81.2232 19.7768C81.2232 20.7339 80.4302 21.5232 79.4688 21.5232C78.5074 21.5232 77.7144 20.7339 77.7144 19.7768C77.7144 18.8198 78.5074 18.0304 79.4688 18.0304Z" fill="#FF7708"/>
<path d="M83.9603 11.5129C83.9603 10.5768 84.5147 9.95508 85.4341 9.95508C86.3534 9.95508 86.9078 10.5698 86.9078 11.5129V11.9181H86.9499C87.7639 10.6816 89.1324 9.95508 90.7184 9.95508C92.3044 9.95508 93.1395 10.4441 93.715 11.9181C94.5922 10.7025 95.708 9.95508 97.3993 9.95508C99.0906 9.95508 101.294 10.9331 101.294 13.7273V20.0983C101.294 20.9296 100.95 21.6561 99.7292 21.6561C98.5081 21.6561 98.1642 20.9296 98.1642 20.0983V14.5167C98.1642 13.406 97.673 12.5118 96.4519 12.5118C95.2308 12.5118 94.1852 13.4689 94.1852 14.9219V20.0983C94.1852 20.9296 93.8413 21.6561 92.6202 21.6561C91.3991 21.6561 91.0553 20.9296 91.0553 20.0983V14.5167C91.0553 13.406 90.564 12.5118 89.3429 12.5118C88.1218 12.5118 87.0762 13.4689 87.0762 14.9219V20.0983C87.0762 20.9296 86.7323 21.6561 85.5112 21.6561C84.2902 21.6561 83.9463 20.9296 83.9463 20.0983V11.5129H83.9603Z" fill="#FF7708"/>
<path d="M106.41 16.3889C106.41 18.0305 107.477 19.2251 109.301 19.2251C111.126 19.2251 111.652 17.6882 112.915 17.6882C114.179 17.6882 114.2 18.3239 114.2 18.9037C114.2 20.7759 111.182 21.6491 109.301 21.6491C104.936 21.6491 103.287 18.7081 103.287 16.0047C103.287 13.3012 105.491 9.95508 109.196 9.95508C112.901 9.95508 114.845 12.4909 114.845 15.0476C114.845 17.6044 114.523 16.3889 113.477 16.3889H106.417H106.41ZM111.891 14.6006C111.722 13.1755 110.649 12.1276 109.259 12.1276C107.87 12.1276 106.754 13.0847 106.41 14.6006H111.891Z" fill="#FF7708"/>
<path d="M17.053 39.9293L14.1196 33.251H15.1161L17.1934 37.9803L19.3128 33.251H20.2952L17.3057 39.9293H17.0601H17.053Z" fill="#5E5E5E"/>
<path d="M23.1724 39.8805L26.0567 33.2441H26.7514L29.6778 39.8805H28.6953L27.8392 37.9245H24.997L24.1478 39.8805H23.1724ZM25.3689 37.0723H27.4462L26.3935 34.6832L25.3689 37.0723Z" fill="#5E5E5E"/>
<path d="M33.8677 39.8805V33.2441H34.6958L39.0819 38.3926V33.2441H40.0293V39.8805H39.1801L34.8081 34.7251V39.8805H33.8677Z" fill="#5E5E5E"/>
<path d="M51.2856 39.8805V33.2441H55.0752V34.0894H52.226V36.0524H54.991V36.9046H52.226V39.8805H51.2856Z" fill="#5E5E5E"/>
<path d="M59.9102 39.8805V33.2441H60.8646V39.8805H59.9102Z" fill="#5E5E5E"/>
<path d="M66.002 39.8805V33.2441H66.83L71.2161 38.3926V33.2441H72.1635V39.8805H71.3144L66.9423 34.7251V39.8805H66.002Z" fill="#5E5E5E"/>
<path d="M76.353 39.8805L79.2373 33.2441H79.9321L82.8585 39.8805H81.876L81.0198 37.9245H78.1776L77.3285 39.8805H76.353ZM78.5496 37.0723H80.6268L79.5742 34.6832L78.5496 37.0723Z" fill="#5E5E5E"/>
<path d="M87.041 39.8805V33.2441H87.8691L92.2552 38.3926V33.2441H93.2026V39.8805H92.3534L87.9814 34.7251V39.8805H87.041Z" fill="#5E5E5E"/>
<path d="M103.989 38.3091V39.3779C103.596 39.5804 103.203 39.7341 102.796 39.8389C102.389 39.9437 101.989 39.9996 101.596 39.9996C101.203 39.9996 100.852 39.9507 100.508 39.8529C100.164 39.7551 99.8344 39.6084 99.5256 39.4128C99.0273 39.0914 98.6484 38.6793 98.3677 38.1763C98.094 37.6734 97.9536 37.1285 97.9536 36.5417C97.9536 35.9549 98.0448 35.6615 98.2273 35.2423C98.4098 34.8232 98.6624 34.4599 98.9992 34.1456C99.3572 33.8103 99.7501 33.5588 100.192 33.3911C100.634 33.2235 101.126 33.1396 101.659 33.1396C102.192 33.1396 102.403 33.1816 102.775 33.2654C103.147 33.3492 103.526 33.4819 103.933 33.6706V34.6975C103.512 34.4669 103.112 34.2993 102.74 34.1945C102.368 34.0827 102.01 34.0338 101.659 34.0338C100.88 34.0338 100.241 34.2783 99.7291 34.7603C99.2238 35.2423 98.9642 35.8501 98.9642 36.5766C98.9642 37.3031 99.2168 37.8969 99.7151 38.3789C100.213 38.8609 100.845 39.1054 101.596 39.1054C102.347 39.1054 102.375 39.0425 102.775 38.9098C103.175 38.7771 103.575 38.5815 103.982 38.316L103.989 38.3091Z" fill="#5E5E5E"/>
<path d="M108.775 39.8805V33.2441H112.782V34.0894H109.722V36.1013H112.698V36.9605H109.722V39.0283H112.887V39.8805H108.782H108.775Z" fill="#5E5E5E"/>
</g>
<defs>
<clipPath id="clip0_173_1283">
<rect width="127" height="40" fill="white"/>
</clipPath>
</defs>
</svg>
