<svg width="282" height="84" viewBox="0 0 282 84" fill="none" xmlns="http://www.w3.org/2000/svg">
<path d="M24.9887 66.88L20.8127 78H18.7007L14.5087 66.88H16.4607L19.7567 76.128L23.0687 66.88H24.9887ZM47.9381 75.728H43.2821L42.4821 78H40.5781L44.5621 66.864H46.6741L50.6581 78H48.7381L47.9381 75.728ZM47.4261 74.24L45.6181 69.072L43.7941 74.24H47.4261ZM76.2463 78H74.4223L68.9343 69.696V78H67.1103V66.864H68.9343L74.4223 75.152V66.864H76.2463V78ZM118.782 66.88V68.368H114.062V71.648H117.742V73.136H114.062V78H112.238V66.88H118.782ZM137.016 66.88V78H135.192V66.88H137.016ZM163.267 78H161.443L155.955 69.696V78H154.131V66.864H155.955L161.443 75.152V66.864H163.267V78ZM187.086 75.728H182.43L181.63 78H179.726L183.71 66.864H185.822L189.806 78H187.886L187.086 75.728ZM186.574 74.24L184.766 69.072L182.942 74.24H186.574ZM215.394 78H213.57L208.082 69.696V78H206.258V66.864H208.082L213.57 75.152V66.864H215.394V78ZM231.902 72.416C231.902 71.328 232.152 70.352 232.654 69.488C233.166 68.624 233.854 67.952 234.718 67.472C235.592 66.9813 236.547 66.736 237.582 66.736C238.766 66.736 239.816 67.0293 240.734 67.616C241.662 68.192 242.334 69.0133 242.75 70.08H240.558C240.27 69.4933 239.87 69.056 239.358 68.768C238.846 68.48 238.254 68.336 237.582 68.336C236.846 68.336 236.19 68.5013 235.614 68.832C235.038 69.1627 234.584 69.6373 234.254 70.256C233.934 70.8747 233.774 71.5947 233.774 72.416C233.774 73.2373 233.934 73.9573 234.254 74.576C234.584 75.1947 235.038 75.6747 235.614 76.016C236.19 76.3467 236.846 76.512 237.582 76.512C238.254 76.512 238.846 76.368 239.358 76.08C239.87 75.792 240.27 75.3547 240.558 74.768H242.75C242.334 75.8347 241.662 76.656 240.734 77.232C239.816 77.808 238.766 78.096 237.582 78.096C236.536 78.096 235.582 77.856 234.718 77.376C233.854 76.8853 233.166 76.208 232.654 75.344C232.152 74.48 231.902 73.504 231.902 72.416ZM261.429 68.352V71.616H265.269V73.104H261.429V76.512H265.749V78H259.605V66.864H265.749V68.352H261.429Z" fill="#D8D8D8"/>
<rect x="2.5" y="2.5" width="276.693" height="49.4741" rx="24.737" stroke="url(#paint0_linear_173_1239)" stroke-width="5"/>
<path d="M216.183 32.6278L216.041 40.7319C216.041 42.2229 215.686 43.2879 215.047 44.0689C214.408 44.8498 213.485 45.2048 212.42 45.2048C211.355 45.2048 210.503 44.8498 209.864 44.0689C209.225 43.3589 208.87 42.2229 208.87 40.7319V29.514C208.87 27.739 208.87 26.39 208.657 25.396C208.515 24.402 208.231 23.621 207.663 22.982C207.166 22.343 206.314 22.059 205.178 22.059C202.906 22.059 201.344 22.84 200.634 24.402C199.924 25.964 199.569 28.236 199.569 31.218V40.7319C199.569 42.2229 199.214 43.2879 198.575 44.0689C197.936 44.7788 197.013 45.2048 195.948 45.2048C194.883 45.2048 194.031 44.8498 193.321 44.0689C192.611 43.2879 192.327 42.2229 192.327 40.7319V20.6391C192.327 19.2901 192.611 18.2961 193.25 17.6571C193.889 16.9471 194.67 16.6631 195.664 16.6631C196.658 16.6631 197.439 17.0181 198.078 17.6571C198.717 18.2961 199.072 19.2191 199.072 20.2841V20.923C200.279 19.4321 201.557 18.3671 202.977 17.7281C204.397 17.0181 205.888 16.7341 207.592 16.7341C209.296 16.7341 210.858 17.0891 212.136 17.7991C213.414 18.5091 214.479 19.5741 215.26 20.994C216.467 19.5741 217.745 18.5091 219.094 17.7991C220.443 17.0891 221.934 16.7341 223.567 16.7341C225.2 16.7341 227.117 17.0891 228.537 17.8701C229.957 18.6511 230.951 19.7161 231.661 21.136C232.229 22.414 232.584 24.402 232.584 27.1V40.8029C232.584 42.2939 232.229 43.3589 231.59 44.1399C230.951 44.9208 230.028 45.2758 228.963 45.2758C227.898 45.2758 227.046 44.9208 226.336 44.1399C225.626 43.3589 225.342 42.2939 225.342 40.8029V29.017C225.342 27.526 225.342 26.319 225.129 25.396C224.916 24.473 224.632 23.692 224.064 23.124C223.496 22.485 222.644 22.201 221.508 22.201C220.372 22.201 219.733 22.485 218.881 23.053C218.029 23.621 217.39 24.331 216.964 25.254C216.467 26.461 216.183 28.52 216.183 31.502L216.183 32.6278Z" fill="#F3611B"/>
<path d="M258.868 32.7773H245.165C245.165 34.3393 245.52 35.7593 246.159 36.9663C246.798 38.1733 247.65 39.0963 248.644 39.7353C249.709 40.3742 250.845 40.6582 252.052 40.6582C253.259 40.6582 253.685 40.5872 254.324 40.3742C255.034 40.1612 255.673 39.8772 256.312 39.4513C256.951 39.0253 257.59 38.5993 258.087 38.1023C258.655 37.6053 259.365 36.9663 260.217 36.1143C260.572 35.8303 261.069 35.6173 261.779 35.6173C262.489 35.6173 263.057 35.8303 263.554 36.1853C263.98 36.6113 264.193 37.1083 264.193 37.8893C264.193 38.6703 263.909 39.2383 263.412 40.0902C262.915 40.9422 262.134 41.7232 261.14 42.5042C260.146 43.2852 258.868 43.9242 257.377 44.4212C255.886 44.9182 254.111 45.2022 252.123 45.2022C247.579 45.2022 244.1 43.9242 241.615 41.3682C239.13 38.8123 237.852 35.3333 237.852 30.9313C237.852 26.5294 238.136 26.9554 238.775 25.1804C239.414 23.4054 240.266 21.9144 241.473 20.6364C242.68 19.3584 244.1 18.3644 245.875 17.7254C247.579 17.0154 249.496 16.7314 251.626 16.7314C253.756 16.7314 256.738 17.2994 258.655 18.4354C260.643 19.5714 262.063 21.0624 263.057 22.9084C264.051 24.7544 264.548 26.6004 264.548 28.5173C264.548 30.4343 264.051 31.4283 263.057 31.9253C262.063 32.4223 261.031 32.7773 259.185 32.7773H258.868ZM245.165 28.7303H257.874C257.732 26.3164 257.022 24.5414 255.957 23.3344C254.821 22.1274 253.33 21.5594 251.555 21.5594C249.78 21.5594 248.36 22.1984 247.224 23.4054C246.088 24.6124 245.449 26.3874 245.165 28.8013V28.7303Z" fill="#F3611B"/>
<circle cx="180.992" cy="22.8164" r="3.85648" fill="#F3611B"/>
<circle cx="180.992" cy="41.1075" r="3.85648" fill="#F3611B"/>
<path d="M42.2182 31.5706V40.8715C42.2182 42.3625 41.8632 43.4275 41.2242 44.2085C40.5852 44.9895 39.6622 45.3445 38.5972 45.3445C37.5322 45.3445 36.6802 44.9895 36.0412 44.2085C35.4022 43.4985 35.0473 42.3625 35.0473 40.8715V29.6536C35.0473 27.8786 35.0473 26.5297 34.8343 25.5357C34.6923 24.5417 34.4083 23.7607 33.8403 23.1217C33.3433 22.4827 32.4913 22.1987 31.3553 22.1987C29.0833 22.1987 27.5213 22.9797 26.8113 24.5417C26.1013 26.1037 25.7463 28.3756 25.7463 31.3576V40.8715C25.7463 42.3625 25.3913 43.4275 24.7523 44.2085C24.1133 44.9185 23.1904 45.3445 22.1254 45.3445C21.0604 45.3445 20.2084 44.9895 19.4984 44.2085C18.7884 43.4275 18.5044 42.3625 18.5044 40.8715V20.7787C18.5044 19.4297 18.7884 18.4357 19.4274 17.7967C20.0664 17.0867 20.8474 16.8027 21.8414 16.8027C22.8354 16.8027 23.6164 17.1577 24.2553 17.7967C24.8943 18.4357 25.2493 19.3587 25.2493 20.4237V21.0627C26.4563 19.5717 27.7343 18.5067 29.1543 17.8677C30.5743 17.1577 32.0653 16.8737 33.7693 16.8737C35.4732 16.8737 37.0352 17.2287 38.3132 17.9387C39.5912 18.6487 40.6562 19.7137 41.4372 21.1337C42.6442 19.7137 43.9222 18.6487 45.2712 17.9387C46.6201 17.2287 48.1111 16.8737 49.7441 16.8737C51.3771 16.8737 53.2941 17.2287 54.7141 18.0097C56.1341 18.7907 57.1281 19.8557 57.8381 21.2757C58.406 22.5537 58.761 24.5417 58.761 27.2396V40.9425C58.761 42.4335 58.4061 43.4985 57.7671 44.2795C57.1281 45.0605 56.2051 45.4155 55.1401 45.4155C54.0751 45.4155 53.2231 45.0605 52.5131 44.2795C51.8031 43.4985 51.5191 42.4335 51.5191 40.9425V29.1566C51.5191 27.6656 51.5191 26.4587 51.3061 25.5357C51.0931 24.6127 50.8091 23.8317 50.2411 23.2637C49.6731 22.6247 48.8211 22.3407 47.6851 22.3407C46.5492 22.3407 45.9102 22.6247 45.0582 23.1927C44.2062 23.7607 43.5672 24.4707 43.1412 25.3937C42.6442 26.6007 42.2182 28.3756 42.2182 31.3576L42.2182 31.5706Z" fill="#CCCCCC"/>
<path d="M83.1847 41.3688C81.4807 42.7178 79.8477 43.7118 78.2857 44.3508C76.7237 44.9898 74.9488 45.3448 72.9608 45.3448C70.9728 45.3448 69.5528 44.9898 68.2038 44.2798C66.8548 43.5698 65.7898 42.5758 65.0798 41.3688C64.3698 40.1618 63.9438 38.8128 63.9438 37.3928C63.9438 35.9729 64.5828 33.8429 65.7898 32.4939C66.9968 31.1449 68.7008 30.2219 70.8308 29.7959C71.2568 29.7249 72.3928 29.4409 74.1678 29.0859C75.9427 28.7309 77.4337 28.3759 78.7117 28.0919C79.9897 27.8079 81.3387 27.4529 82.8297 27.0269C82.7587 25.181 82.4037 23.832 81.6937 22.98C80.9837 22.128 79.6347 21.702 77.5757 21.702C75.5167 21.702 74.4518 21.986 73.5288 22.483C72.6058 22.98 71.8248 23.761 71.1858 24.755C70.5468 25.7489 70.1208 26.3879 69.8368 26.7429C69.5528 27.0269 68.9848 27.2399 68.1328 27.2399C67.2808 27.2399 66.6418 26.9559 66.0738 26.4589C65.5058 25.9619 65.2218 25.3229 65.2218 24.542C65.2218 23.335 65.6478 22.128 66.4998 20.921C67.3518 19.785 68.7718 18.791 70.6178 18.01C72.4638 17.229 74.8068 16.874 77.5047 16.874C80.2027 16.874 83.0427 17.229 84.8177 17.939C86.5927 18.649 87.7996 19.856 88.5806 21.418C89.2906 22.98 89.6456 25.11 89.6456 27.6659C89.6456 30.2219 89.6456 30.7189 89.6456 31.8549C89.6456 32.9909 89.6456 34.2689 89.6456 35.6889C89.6456 37.0378 89.8586 38.3868 90.2846 39.8068C90.7106 41.2268 90.9236 42.1498 90.9236 42.5758C90.9236 43.2858 90.5686 43.9248 89.9296 44.5638C89.2196 45.1318 88.5096 45.4158 87.6576 45.4158C86.8057 45.4158 86.2377 45.0608 85.5277 44.4218C84.8177 43.7118 84.1077 42.7888 83.2557 41.5108L83.1847 41.3688ZM82.6877 31.1449C81.6937 31.4999 80.1317 31.9259 78.2147 32.3519C76.2267 32.7779 74.8778 33.0619 74.1678 33.2749C73.3868 33.4879 72.6768 33.8429 72.0378 34.4109C71.3278 34.9789 71.0438 35.7599 71.0438 36.8249C71.0438 37.8898 71.4698 38.8128 72.2508 39.5228C73.0318 40.3038 74.0968 40.6588 75.4457 40.6588C76.7947 40.6588 78.1437 40.3748 79.2797 39.7358C80.4867 39.0968 81.3387 38.3158 81.8357 37.3928C82.4747 36.3279 82.7587 34.5529 82.7587 32.1389V31.1449H82.6877Z" fill="#CCCCCC"/>
<path d="M95.8225 17.3713H96.6035V13.1823C96.6035 12.0463 96.6035 11.1943 96.6745 10.5553C96.6745 9.91633 96.8875 9.34833 97.1715 8.92234C97.4555 8.42534 97.8105 8.07035 98.3785 7.78635C98.8755 7.50235 99.4435 7.36035 100.082 7.36035C100.721 7.36035 101.786 7.71535 102.496 8.35434C102.993 8.78034 103.277 9.34833 103.419 9.98733C103.561 10.6263 103.632 11.5493 103.632 12.7563V17.5133H106.188C107.182 17.5133 107.963 17.7263 108.46 18.2233C108.957 18.7203 109.241 19.2882 109.241 20.0692C109.241 20.8502 108.886 21.7022 108.105 22.0572C107.324 22.4122 106.259 22.6252 104.91 22.6252H103.632V35.5471C103.632 36.6121 103.632 37.4641 103.774 38.1031C103.916 38.7421 104.058 39.1681 104.413 39.5231C104.768 39.8781 105.265 40.0911 106.046 40.0911C106.827 40.0911 107.04 40.0201 107.75 39.8781C108.46 39.7361 109.028 39.6651 109.383 39.6651C109.951 39.6651 110.448 39.8781 110.945 40.3751C111.371 40.8011 111.655 41.3691 111.655 42.0791C111.655 43.215 111.016 44.067 109.809 44.706C108.602 45.274 106.827 45.629 104.484 45.629C102.141 45.629 100.65 45.274 99.5145 44.493C98.3785 43.712 97.6685 42.7181 97.3135 41.4401C96.9585 40.1621 96.8165 38.3871 96.8165 36.1861V22.6962H95.8935C94.8995 22.6962 94.1185 22.4832 93.5505 21.9862C93.0535 21.4892 92.7695 20.9212 92.7695 20.1402C92.7695 19.3592 93.0535 18.7913 93.6215 18.2943C94.1895 17.7973 94.9705 17.5843 96.0355 17.5843L95.8225 17.3713Z" fill="#CCCCCC"/>
<path d="M139.274 36.6113C139.274 37.4633 138.99 38.3863 138.493 39.3802C137.996 40.3742 137.144 41.2972 136.08 42.2202C135.015 43.1432 133.666 43.8532 132.033 44.4212C130.4 44.9892 128.554 45.2732 126.495 45.2732C122.164 45.2732 118.756 43.9952 116.342 41.5102C113.928 38.9543 112.721 35.6173 112.721 31.3573C112.721 27.0974 113.289 25.9614 114.425 23.6894C115.561 21.4884 117.123 19.7844 119.253 18.5774C121.383 17.3704 123.868 16.7314 126.779 16.7314C129.69 16.7314 130.258 17.0154 131.749 17.5124C133.24 18.0094 134.518 18.7194 135.583 19.5714C136.647 20.4234 137.428 21.2754 137.996 22.2694C138.564 23.1924 138.848 24.1154 138.848 24.8964C138.848 25.6774 138.564 26.4584 137.925 27.0264C137.286 27.5944 136.505 27.8783 135.653 27.8783C134.802 27.8783 134.589 27.7364 134.234 27.4524C133.879 27.1684 133.382 26.6714 132.956 26.0324C132.104 24.7544 131.181 23.7604 130.258 23.1214C129.335 22.4824 128.128 22.1274 126.708 22.1274C124.649 22.1274 122.945 22.9084 121.667 24.5414C120.389 26.1744 119.75 28.3753 119.75 31.2153C119.75 34.0553 119.892 33.7713 120.247 34.8363C120.602 35.9723 121.028 36.8953 121.667 37.6763C122.306 38.4573 123.016 39.0253 123.939 39.4512C124.791 39.8772 125.785 40.0902 126.85 40.0902C127.915 40.0902 129.477 39.7352 130.471 39.0963C131.465 38.4573 132.388 37.4633 133.098 36.1143C133.524 35.3333 134.021 34.6943 134.518 34.2683C135.015 33.8423 135.653 33.6293 136.363 33.6293C137.073 33.6293 137.925 33.9843 138.493 34.6233C139.061 35.2623 139.345 35.9723 139.345 36.6823L139.274 36.6113Z" fill="#CCCCCC"/>
<path d="M150.919 10.5549V20.9918C151.842 19.9978 152.694 19.1458 153.546 18.5778C154.398 18.0098 155.321 17.5128 156.386 17.2288C157.451 16.9448 158.516 16.8028 159.723 16.8028C161.497 16.8028 163.059 17.1578 164.479 17.9388C165.828 18.7198 166.964 19.7848 167.745 21.2048C168.242 22.0568 168.597 22.9798 168.739 24.0448C168.881 25.1098 169.023 26.2458 169.023 27.6657V41.0846C169.023 42.5046 168.668 43.5696 168.029 44.2796C167.39 44.9896 166.538 45.3446 165.473 45.3446C163.13 45.3446 161.994 43.9246 161.994 41.0846V29.2277C161.994 26.9557 161.639 25.2518 161.001 24.0448C160.362 22.8378 159.084 22.1988 157.167 22.1988C155.25 22.1988 154.753 22.5538 153.759 23.2638C152.765 23.9738 151.984 24.9678 151.487 26.1748C151.132 27.2397 150.919 29.0857 150.919 31.7837V41.0846C150.919 42.5046 150.635 43.4986 149.996 44.2796C149.357 44.9896 148.505 45.3446 147.369 45.3446C145.026 45.3446 143.89 43.9246 143.89 41.0846V10.5549C143.89 9.1349 144.174 8.06991 144.813 7.35991C145.452 6.64992 146.304 6.29492 147.369 6.29492C148.434 6.29492 149.357 6.64992 149.996 7.35991C150.635 8.06991 150.919 9.1349 150.919 10.5549Z" fill="#CCCCCC"/>
<defs>
<linearGradient id="paint0_linear_173_1239" x1="5" y1="27.237" x2="276.693" y2="27.237" gradientUnits="userSpaceOnUse">
<stop stop-color="#FF9C31"/>
<stop offset="0.197115" stop-color="#FF731C"/>
<stop offset="0.591346" stop-color="#FF5F33"/>
<stop offset="0.9375" stop-color="#BE5339"/>
</linearGradient>
</defs>
</svg>
